<svg xmlns="http://www.w3.org/2000/svg" version="1.1" xmlns:xlink="http://www.w3.org/1999/xlink" xmlns:svgjs="http://svgjs.com/svgjs" width="100%" height="100%" viewBox="0 0 1000 600"><rect width="1000" height="600" x="0" y="0" fill="#ffffff"/><g><circle r="166.66666666666666" cx="361.94750467936194" cy="384.16971314419345" fill="#ec449b" transform="matrix(0.6401037387001299,0,0,0.64010373870013,0,54.091503814224936)"/><path d="M390.71422584820897 376.4018202724267L407.956293089803 395.79914591921994L337.2817778859775 395.79914591921994L337.49131689759406 459.16972986098136L307.31769922480447 452.9134936570002L307.31769922480447 309.37927069963314L307.52723823642106 309.5888097112497L307.31769922480447 309.16973168801655L399.335259469006 309.16973168801655L416.5773267106 328.5670573348099L337.07223887436083 328.5670573348099L337.07223887436083 376.4018202724267L390.71422584820897 376.4018202724267Z " fill="#99f443" transform="matrix(0.6401037387001299,0,0,0.64010373870013,0,54.091503814224936)"/><path d="M690.2719447378279 381.0280393086503L706.4653662993078 399.2456385653152L640.0892060447001 399.2456385653152L640.2860010983986 458.76208551957376L611.9475133658087 452.8863474877174L611.9475133658087 318.0817357042171L612.1443084195073 318.27853075791563L611.9475133658087 317.8849406505186L698.3686555185678 317.8849406505186L714.5620770800477 336.1025399071835L639.8924109910015 336.1025399071835L639.8924109910015 381.0280393086503L690.2719447378279 381.0280393086503ZM737.2497354135795 381.84333310254425L737.0529403598808 381.84333310254425L726.116758090062 363.4289387921808Q740.2860019563569 359.7741735092079 757.5758531027287 356.5411119127319Q774.8938178282002 353.30805031625584 779.3357633259673 353.5048453699544Q783.8058224028342 353.701640423653 797.1597724752352 366.74634112595623Q810.5137225476361 379.81915540735923 815.1805766782014 386.70698228680817L815.1805766782014 386.70698228680817Q816.7830506868896 389.12475008939026 816.7830506868896 402.98474458558746Q816.7830506868896 416.84473908178467 816.2770062630933 434.66874823105246Q815.7709618392971 452.49275738032026 815.9958704720954 458.76208551957376L815.9958704720954 458.76208551957376L790.8904443359816 452.8863474877174L791.0872393896801 442.56866395809385Q774.6970227745018 458.9588805732723 764.3793392448782 458.9588805732723L764.3793392448782 458.9588805732723Q754.6520408763504 458.76208551957376 739.6675032161614 440.5444862629089Q724.6829655559726 422.326887006244 724.6829655559726 414.4269712792026L724.6829655559726 414.4269712792026Q724.6829655559726 408.15764313994913 733.2013800232095 402.9004038482881Q741.6916809113465 397.6150509775273 753.9492013988556 394.69123875114894Q766.1786083072649 391.76742652477066 775.7091116220942 390.1368389369827Q785.2115013578237 388.5062513491948 791.9025331835741 387.9158661880992L791.9025331835741 387.9158661880992L792.0993282372726 382.43371826363983Q792.2961232909712 372.7345334742118 781.7816447076492 371.91923968031784L781.7816447076492 371.91923968031784Q772.0543463391213 371.3007409401224 740.8763871174525 380.6344492012532L740.8763871174525 380.6344492012532L740.6795920637541 380.6344492012532L740.4827970100555 380.83124425495174L740.2860019563569 380.83124425495174L740.0892069026584 380.83124425495174L739.8642982698601 381.0280393086503L739.6675032161614 381.0280393086503L739.470708162463 381.0280393086503L739.2739131087644 381.2248343623489L739.0771180550659 381.2248343623489L738.8522094222675 381.2248343623489L738.655414368569 381.4216294160474L738.4586193148705 381.4216294160474L738.2618242611719 381.4216294160474L738.0650292074735 381.4216294160474L737.8401205746751 381.6465380488457L737.6433255209765 381.6465380488457L737.446530467278 381.6465380488457L737.2497354135795 381.84333310254425ZM747.1738288358058 432.64457053586744L747.1738288358058 432.64457053586744Q748.9730978981925 435.4840420249464 754.033542136155 436.29933581884035Q759.0939863741174 437.0865160336345 769.3273291664416 433.5442050670608Q779.5606719587656 430.00189410048705 791.4808294970773 421.11800310495295L791.4808294970773 421.11800310495295L791.7057381298756 403.29399395568515Q738.2618242611719 418.8689167769696 747.1738288358058 432.64457053586744ZM912.3411060470809 362.8104400519854L912.3411060470809 362.8104400519854L910.1201332981973 373.7466223218043Q890.468741507443 369.27656324493745 884.1994133681895 370.0918570388314L884.1994133681895 370.0918570388314Q874.2753199459631 371.3007409401224 868.6244905469051 379.70670109096005Q862.9455475687472 388.11266124179775 864.5761351565351 395.81578191514063L864.5761351565351 395.81578191514063Q864.9697252639322 397.6150509775273 873.881729838566 395.39407822864376Q882.7937344132 393.1731054797602 893.308212996522 390.83967841447753Q903.822691579844 388.5062513491948 906.8589581226215 390.1368389369827L906.8589581226215 390.1368389369827Q920.8314069352178 397.4182559238287 925.6950561194818 409.3665270412401Q930.5587053037458 421.3147981586515 926.8195992834735 432.13852611207125Q923.0523796841014 442.962254065491 911.5258122531869 450.86216979253237Q899.9992448222723 458.76208551957376 883.8058232607924 458.76208551957376L883.8058232607924 458.76208551957376Q870.4237596092918 458.76208551957376 859.0096464947763 451.36821421632857Q847.5674198011612 443.97434291308343 832.1892920335753 429.2147138856929L832.1892920335753 429.2147138856929L835.8159437374485 422.326887006244Q849.5915974963463 432.64457053586744 864.9697252639322 436.18688150244117Q880.3478530315182 439.7291924690149 893.6174623666197 433.45986432976144Q906.8589581226215 427.19053619050794 911.3290171994884 410.3786158888326L911.3290171994884 410.3786158888326Q911.5258122531869 409.56332209493866 909.5016345580019 409.76011714863716L909.5016345580019 409.76011714863716Q907.2806618091184 409.9850257814355 898.3686572344844 412.4027935840176L898.3686572344844 412.4027935840176Q870.2269645555932 419.88100562456214 862.5519574613502 416.84473908178467L862.5519574613502 416.84473908178467L860.7245748198637 415.83265023419216Q849.5915974963463 407.34234934605513 842.7037706168974 397.2214608701302L842.7037706168974 397.2214608701302Q837.6433263789348 390.3336339906813 838.5429609101282 382.6586268964382Q839.4707090204213 374.9555062230953 843.7158594644899 368.5737237674427Q847.9610099085584 362.19194131179 856.4794243757951 358.05924518412064Q864.9697252639322 353.8984354773515 875.0906137398571 353.8984354773515L875.0906137398571 353.8984354773515Q878.1268802826347 353.8984354773515 883.6933689443933 355.10731937864256Q889.2598576061521 356.34431685903337 899.4932003984761 359.26812908541166Q909.6984296117005 362.19194131179 912.3411060470809 362.8104400519854ZM952.0093661568866 370.28865209252996L941.4948875735646 370.28865209252996L935.4223544880098 356.119408226235L952.0093661568866 356.119408226235L952.0093661568866 334.27515726569703L976.917997239302 339.9259866647551L976.917997239302 356.119408226235L1001.6017196889188 356.119408226235L1007.6742527744738 370.28865209252996L976.917997239302 370.28865209252996L976.917997239302 396.01257696883914Q976.917997239302 398.23354971772267 976.917997239302 402.6754952154897L976.917997239302 402.6754952154897Q976.917997239302 408.15764313994913 976.8055429229026 413.61167748530863Q976.6930886065036 419.093825409768 977.4240416630981 423.9293610149321Q978.1268811405929 428.79301019919603 979.1389699881855 432.841365589566Q980.1510588357779 436.889720979936 982.5688266383601 439.3356023616179Q985.0147080200419 441.7533701641999 988.4445646702164 442.56866395809385Q991.874421320391 443.3839577519878 997.2441149284512 441.4441207941022Q1002.6138085365113 439.5323974153164 1009.5016354159603 435.06233833844954L1009.5016354159603 435.06233833844954L1014.9556697613198 441.35978005680283Q1003.2323072767068 452.0710536938234 995.3323915496653 456.31620413789193L995.3323915496653 456.31620413789193Q989.2598584641104 459.77417436716627 978.6329255643892 455.21977455300004Q968.005992664668 450.6653747388338 959.9936226212275 442.45620964169467Q952.0093661568866 434.2751581236554 952.0093661568866 428.2026250381004L952.0093661568866 428.2026250381004L952.0093661568866 370.28865209252996ZM1143.9126570920635 452.8863474877174L1059.4875790553897 452.8863474877174L1059.0939889479923 452.49275738032026L1033.1732690179847 447.0106094558609L1033.1732690179847 317.8849406505186L1119.6225247498437 317.8849406505186L1135.8159463113234 336.1025399071835L1061.1181666431776 336.1025399071835L1061.1181666431776 374.9555062230953L1111.5258139691036 374.9555062230953L1127.7192355305833 393.1731054797602L1061.3149616968758 393.1731054797602L1061.3149616968758 434.66874823105246L1127.7192355305833 434.66874823105246L1143.9126570920635 452.8863474877174ZM1188.444566386133 442.56866395809385L1188.444566386133 442.56866395809385Q1204.4130793148147 450.6653747388338 1227.1007376483462 434.66874823105246L1227.1007376483462 434.66874823105246L1227.1007376483462 377.7949777121743Q1221.22499961649 374.3370074828999 1210.7105210331679 373.12812358160886L1210.7105210331679 373.12812358160886Q1202.38890161963 372.3128297877149 1194.5170994716882 381.5340837324465Q1186.6171837446466 390.75533767717815 1182.5688283542768 402.9004038482881Q1178.5204729639067 415.045470019398 1179.6169025487986 426.8812868204102Q1180.7414457127902 438.71710362142244 1188.444566386133 442.56866395809385ZM1227.1007376483462 366.85879544235536L1227.1007376483462 309.1697311295832L1252.4029588381586 314.8486741077411Q1253.61184273945 451.48066853272775 1252.4029588381586 452.6895524340188L1252.4029588381586 452.6895524340188Q1251.3908699905664 452.8863474877174 1241.9728209921363 455.02297949930147Q1232.5547719937058 457.1314979317859 1229.9402091374254 457.5532016182827Q1227.297532702045 457.9467917256798 1219.088367604906 458.76208551957376Q1210.9073160868666 459.5773793134677 1206.1561212190018 458.76208551957376Q1201.3768127720373 457.9467917256798 1194.2921908388898 456.035068346894Q1187.2075689057424 454.09523138900835 1180.7414457127902 450.46857968513524L1180.7414457127902 450.46857968513524Q1169.2148782818758 444.171137966782 1162.9174365635226 435.06233833844954Q1156.648108424269 425.95353871011713 1156.2545183168718 416.45114897438754Q1155.832814630375 406.94875923865806 1158.4754910657553 397.10900655373104Q1161.1181675011358 387.2973674479038 1166.8814512165932 379.11631592986447Q1172.6447349320501 370.90715083272534 1179.2233124414015 364.63782269347183Q1185.8018899507529 358.36849455421833 1193.0833069375985 355.61336380243876Q1200.3647239244447 352.886346629759 1206.0436669026026 354.7137292712454L1206.0436669026026 354.7137292712454Q1208.686343337983 355.52902306513937 1211.6101555643613 357.04715633652813Q1214.5339677907396 358.5652896079169 1216.4738047486253 359.7741735092079Q1218.3855281274111 360.98305741049893 1221.9278390939849 363.4289387921808Q1225.4701500605588 365.8467065947629 1227.1007376483462 366.85879544235536L1227.1007376483462 366.85879544235536ZM1287.4043648173993 381.84333310254425L1287.2075697637006 381.84333310254425L1276.2713874938818 363.4289387921808Q1290.4406313601767 359.7741735092079 1307.7585960856482 356.5411119127319Q1325.0765608111196 353.30805031625584 1329.5185063088866 353.5048453699544Q1333.960451806654 353.701640423653 1347.3425154581546 366.74634112595623Q1360.6964655305555 379.81915540735923 1365.3352060820212 386.70698228680817L1365.3352060820212 386.70698228680817Q1366.965793669809 389.12475008939026 1366.965793669809 402.98474458558746Q1366.965793669809 416.84473908178467 1366.459749246013 434.66874823105246Q1365.9537048222169 452.49275738032026 1366.150499875915 458.76208551957376L1366.150499875915 458.76208551957376L1341.0450737398014 452.8863474877174L1341.2699823725998 442.56866395809385Q1324.8516521783217 458.9588805732723 1314.5339686486977 458.9588805732723L1314.5339686486977 458.9588805732723Q1304.83478385927 458.76208551957376 1289.850246199081 440.5444862629089Q1274.8657085388922 422.326887006244 1274.8657085388922 414.4269712792026L1274.8657085388922 414.4269712792026Q1274.8657085388922 408.15764313994913 1283.3560094270292 402.9004038482881Q1291.8744238942659 397.6150509775273 1304.1038308026755 394.69123875114894Q1316.3613512901843 391.76742652477066 1325.863741025914 390.1368389369827Q1335.3942443407432 388.5062513491948 1342.057162587394 387.9158661880992L1342.057162587394 387.9158661880992L1342.2820712201924 382.43371826363983Q1342.4788662738906 372.7345334742118 1331.9362741114687 371.91923968031784L1331.9362741114687 371.91923968031784Q1322.237089322041 371.3007409401224 1291.059130100372 380.6344492012532L1291.059130100372 380.6344492012532L1290.8623350466737 380.6344492012532L1290.665539992975 380.83124425495174L1290.4406313601767 380.83124425495174L1290.243836306478 380.83124425495174L1290.0470412527798 381.0280393086503L1289.850246199081 381.0280393086503L1289.6534511453824 381.0280393086503L1289.428542512584 381.2248343623489L1289.2317474588858 381.2248343623489L1289.0349524051871 381.2248343623489L1288.8381573514885 381.4216294160474L1288.6413622977902 381.4216294160474L1288.4164536649919 381.4216294160474L1288.2196586112932 381.4216294160474L1288.0228635575945 381.6465380488457L1287.8260685038958 381.6465380488457L1287.6292734501976 381.6465380488457L1287.4043648173993 381.84333310254425ZM1297.328458239626 432.64457053586744L1297.328458239626 432.64457053586744Q1299.155840881112 435.4840420249464 1304.2162851190747 436.29933581884035Q1309.2767293570369 437.0865160336345 1319.5100721493613 433.5442050670608Q1329.7153013625857 430.00189410048705 1341.6635724799971 421.11800310495295L1341.6635724799971 421.11800310495295L1341.8603675336954 403.29399395568515Q1288.4164536649919 418.8689167769696 1297.328458239626 432.64457053586744Z " fill="#ec449b" transform="matrix(0.6401037387001299,0,0,0.64010373870013,0,54.091503814224936)"/></g></svg>